<?xml version="1.0" encoding="UTF-8"?>
<!DOCTYPE svg PUBLIC "-//W3C//DTD SVG 1.1//EN" "http://www.w3.org/Graphics/SVG/1.1/DTD/svg11.dtd">
<svg xmlns="http://www.w3.org/2000/svg" version="1.1" width="16px" height="16px" style="shape-rendering:geometricPrecision; text-rendering:geometricPrecision; image-rendering:optimizeQuality; fill-rule:evenodd; clip-rule:evenodd" xmlns:xlink="http://www.w3.org/1999/xlink">
<g><path style="opacity:0.737" fill="#2c2a23" d="M 0.5,-0.5 C 2.5,-0.5 4.5,-0.5 6.5,-0.5C 6.58577,0.495904 6.25244,1.32924 5.5,2C 7.80982,2.49665 10.1432,2.66331 12.5,2.5C 14.0311,3.92454 13.6977,4.59121 11.5,4.5C 9.39263,3.53178 7.0593,3.19845 4.5,3.5C 4.5,3.16667 4.5,2.83333 4.5,2.5C 4.05165,0.535446 3.05165,0.202113 1.5,1.5C 0.754152,2.73619 0.420818,4.06953 0.5,5.5C 0.166667,5.5 -0.166667,5.5 -0.5,5.5C -0.5,3.83333 -0.5,2.16667 -0.5,0.5C 0.166667,0.5 0.5,0.166667 0.5,-0.5 Z"/></g>
<g><path style="opacity:1" fill="#90885a" d="M 4.5,2.5 C 3.16667,3.5 1.83333,4.5 0.5,5.5C 0.420818,4.06953 0.754152,2.73619 1.5,1.5C 3.05165,0.202113 4.05165,0.535446 4.5,2.5 Z"/></g>
<g><path style="opacity:0.737" fill="#14130e" d="M 4.5,2.5 C 4.5,2.83333 4.5,3.16667 4.5,3.5C 4.5,3.83333 4.5,4.16667 4.5,4.5C 4.5,4.83333 4.5,5.16667 4.5,5.5C 2.92718,7.83625 1.59385,7.83625 0.5,5.5C 1.83333,4.5 3.16667,3.5 4.5,2.5 Z"/></g>
<g><path style="opacity:0.922" fill="#161717" d="M 15.5,0.5 C 15.5,1.83333 15.5,3.16667 15.5,4.5C 14.5,5.16667 13.5,5.83333 12.5,6.5C 12.0825,5.77842 11.4158,5.27842 10.5,5C 10.7284,4.60123 11.0618,4.43456 11.5,4.5C 13.6977,4.59121 14.0311,3.92454 12.5,2.5C 12.9731,1.09368 13.9731,0.427017 15.5,0.5 Z"/></g>
<g><path style="opacity:0.745" fill="#101215" d="M 4.5,4.5 C 6.20475,6.19211 8.20475,7.52544 10.5,8.5C 10.5,10.1667 10.5,11.8333 10.5,13.5C 9.83333,13.5 9.16667,13.5 8.5,13.5C 8.65668,12.1266 8.49001,10.7932 8,9.5C 6.62439,8.29493 5.45773,6.9616 4.5,5.5C 4.5,5.16667 4.5,4.83333 4.5,4.5 Z"/></g>
<g><path style="opacity:0.918" fill="#697485" d="M 4.5,4.5 C 4.5,4.16667 4.5,3.83333 4.5,3.5C 7.0593,3.19845 9.39263,3.53178 11.5,4.5C 11.0618,4.43456 10.7284,4.60123 10.5,5C 11.4158,5.27842 12.0825,5.77842 12.5,6.5C 12.1667,7.5 11.5,8.16667 10.5,8.5C 8.20475,7.52544 6.20475,6.19211 4.5,4.5 Z"/></g>
<g><path style="opacity:0.667" fill="#1a1a1a" d="M 8.5,13.5 C 9.16667,13.5 9.83333,13.5 10.5,13.5C 11.5,13.8333 12.1667,14.5 12.5,15.5C 10.1667,15.5 7.83333,15.5 5.5,15.5C 5.97306,14.0937 6.97306,13.427 8.5,13.5 Z"/></g>
</svg>
